<svg width="263" height="263" viewBox="0 0 263 263" fill="none" xmlns="http://www.w3.org/2000/svg">
<path d="M223.521 196.516C221.368 181.351 217.088 168.753 210.679 158.725C204.27 148.696 195.244 142.899 183.601 141.333C177.046 148.573 169.243 154.224 160.192 158.284C151.142 162.345 141.578 164.375 131.5 164.375C121.422 164.375 111.858 162.345 102.808 158.284C93.7574 154.224 85.9544 148.573 79.399 141.333C67.7558 142.899 58.7298 148.696 52.3212 158.725C45.9125 168.753 41.6319 181.351 39.4794 196.516C49.8506 211.193 63.1083 222.811 79.2522 231.372C95.3962 239.934 112.812 244.214 131.5 244.214C150.188 244.214 167.604 239.934 183.748 231.372C199.892 222.811 213.149 211.193 223.521 196.516ZM187.857 93.9286C187.857 78.3717 182.354 65.0896 171.346 54.0823C160.339 43.0751 147.057 37.5714 131.5 37.5714C115.943 37.5714 102.661 43.0751 91.6537 54.0823C80.6465 65.0896 75.1429 78.3717 75.1429 93.9286C75.1429 109.485 80.6465 122.768 91.6537 133.775C102.661 144.782 115.943 150.286 131.5 150.286C147.057 150.286 160.339 144.782 171.346 133.775C182.354 122.768 187.857 109.485 187.857 93.9286ZM263 131.5C263 149.307 259.527 166.307 252.58 182.5C245.633 198.693 236.314 212.685 224.621 224.475C212.929 236.265 198.962 245.633 182.72 252.58C166.479 259.527 149.405 263 131.5 263C113.693 263 96.6682 259.527 80.4263 252.58C64.1845 245.633 50.1931 236.289 38.452 224.548C26.7109 212.807 17.367 198.815 10.4202 182.574C3.4734 166.332 0 149.307 0 131.5C0 113.693 3.4734 96.6682 10.4202 80.4263C17.367 64.1845 26.7109 50.1931 38.452 38.452C50.1931 26.7109 64.1845 17.367 80.4263 10.4202C96.6682 3.4734 113.693 0 131.5 0C149.307 0 166.332 3.4734 182.574 10.4202C198.815 17.367 212.807 26.7109 224.548 38.452C236.289 50.1931 245.633 64.1845 252.58 80.4263C259.527 96.6682 263 113.693 263 131.5Z" fill="#D00065"/>
</svg>
