<svg width="388" height="91" viewBox="0 0 388 91" fill="none" xmlns="http://www.w3.org/2000/svg">
<path d="M34 14C15.2229 14 0 29.2229 0 48L0.00113325 48.0601L0 48.1201C0 66.8315 15.1379 82 33.813 82L33.8855 81.9977L34 82C52.7771 82 68 66.7771 68 48C68 29.2229 52.7771 14 34 14ZM65.7333 48C65.7333 50.7132 65.3911 53.3459 64.7519 55.8585C64.4561 55.6545 63.6741 56.4977 63.4814 55.3803C63.24 53.9931 61.676 53.0297 60.8339 53.6927C59.9919 54.3557 57.5858 56.2835 57.4668 57.4894C57.3455 58.6941 56.3221 60.1403 55.8427 59.118C55.3599 58.0935 53.9183 54.8986 53.9773 54.0554C54.0362 53.2122 53.3131 54.3569 52.2342 52.6693C51.1507 50.9818 49.2864 52.4268 47.7825 51.5836C46.2785 50.7393 44.5944 49.5946 43.7512 49.2342C42.9114 48.8715 45.2551 52.6081 45.5566 52.1265C45.8592 51.6448 47.0605 52.488 47.4221 52.488C47.7836 52.488 48.7447 53.3312 48.144 54.1155C47.5433 54.8997 42.1906 58.1569 41.6489 57.3092C41.1049 56.4615 37.9202 49.8961 37.3773 50.2984C36.8356 50.7007 40.7467 57.5495 41.4086 57.9711C42.0682 58.3938 44.0549 58.0323 45.016 57.6107C45.9793 57.1891 43.0315 62.3117 41.7701 62.9147C40.5076 63.5165 39.4853 65.3853 40.0248 66.2285C40.5665 67.0717 40.6266 70.2666 39.4853 70.6893C38.3407 71.1098 37.9202 71.7728 38.2806 72.5571C38.6399 73.3391 37.4397 74.6639 36.8979 75.5083C36.3551 76.3515 34.2516 78.0991 34.0703 78.5819C33.8912 79.0647 31.3049 78.9434 30.2804 78.9434C29.2593 78.9434 30.0401 77.6775 29.9189 76.594C29.801 75.5083 28.8989 74.4837 28.8989 73.942C28.8989 73.3991 28.5963 72.1332 28.1769 71.5314C27.7565 70.9273 27.6341 69.7827 28.0557 69.1208C28.4784 68.4567 28.7776 66.53 27.9378 65.6857C27.0946 64.8425 26.1313 63.3952 26.7943 62.2505C27.4561 61.1059 26.0723 61.2271 24.9299 60.6831C23.7864 60.1403 21.4404 60.8645 20.2379 61.0458C19.0343 61.226 17.833 60.7443 17.4715 60.1403C17.1111 59.5385 16.3291 58.0323 15.5278 57.6696C14.7288 57.3092 15.1867 55.7418 15.6672 55.14C16.15 54.5382 15.1867 53.3924 15.6672 52.9085C16.15 52.4268 16.4492 50.6803 17.4114 50.2984C18.3747 49.9176 18.1934 49.6558 18.2229 48.7514C18.2535 47.847 19.3052 47.847 19.4843 47.3653C19.6656 46.8825 20.2062 46.6423 21.2919 46.6423C22.3743 46.6423 24.2069 46.0087 25.0795 45.7979C25.9522 45.5871 27.4561 45.2857 27.3349 46.13C27.2147 46.9732 27.2453 47.9365 27.8154 47.9365C28.3877 47.9365 29.1697 48.2686 30.0719 48.8307C30.974 49.3917 31.0035 48.9327 31.1247 48.2992C31.246 47.6657 32.5074 47.9071 33.813 48.51C35.1186 49.1129 36.8991 48.6902 37.468 48.6313C38.0403 48.5689 38.2817 46.8531 38.131 46.2807C37.9791 45.7084 37.0781 46.5516 36.5069 46.1901C35.9357 45.8297 35.1526 46.2807 34.5825 45.7673C34.0102 45.2562 33.9195 44.0503 34.5825 44.0209C35.2433 43.9903 35.5753 43.7795 35.9652 43.3284C36.3573 42.8762 37.8307 42.6053 38.4019 43.0564C38.9719 43.5086 39.8163 43.8101 40.3251 43.2978C40.8363 42.7867 39.3051 41.7927 38.9719 41.5207C38.641 41.2499 38.9119 40.3761 38.5821 40.3761C38.25 40.3761 37.9791 40.5257 38.1605 40.9484C38.3407 41.37 37.1983 42.1225 37.0158 41.7021C36.8367 41.2793 36.5364 40.4667 36.0853 40.4667C35.6354 40.4667 35.0336 42.5158 35.003 42.8467C34.9724 43.1788 34.1904 43.7205 33.5603 43.7205C32.9301 43.7205 32.9301 44.4447 33.2599 44.7768C33.5909 45.1077 33.3495 46.4337 32.7488 46.5097C32.147 46.5867 31.9362 46.3737 31.8467 45.8603C31.7571 45.3491 31.1553 45.4092 31.1247 44.3541C31.0941 43.2989 30.4323 42.7878 30.0118 42.305C29.5913 41.8222 28.5079 40.4067 28.0874 41.0402C27.6669 41.6737 29.5913 43.0292 30.1013 43.3896C30.6147 43.7511 30.5241 44.5343 30.2532 44.7156C29.9823 44.8969 29.4712 46.3737 29.1709 46.4927C28.8683 46.6128 28.5815 46.0439 28.5815 46.0439C28.1305 45.8637 29.2117 45.3208 29.393 45.0499C29.5721 44.7791 27.4992 42.8807 27.1252 42.3379C26.7512 41.795 25.1532 42.7889 24.4324 42.4285C23.7105 42.0681 22.627 43.784 22.5386 44.7779C22.4468 45.773 21.2738 46.0427 20.1915 46.0427C19.1103 46.0427 18.3872 45.2301 18.7499 44.4164C19.1103 43.6027 18.5685 42.2472 19.2009 42.1565C19.8322 42.067 21.6342 42.1565 21.9957 41.1626C22.3561 40.1687 20.281 39.2643 21.0947 39.0841C21.9051 38.9027 23.1699 37.6391 24.072 36.9149C24.9719 36.1918 25.0625 35.2885 25.874 35.2251C26.6877 35.1627 25.6949 33.6599 26.4169 33.2089C27.1399 32.7567 27.319 34.8363 27.8607 34.8363C28.4025 34.8363 29.4825 34.655 30.3858 35.1072C31.2891 35.5594 31.5588 34.655 31.9203 33.4786C32.2807 32.3045 33.1829 31.6709 34.986 30.7677C36.7903 29.8633 32.9131 31.0385 32.1901 30.1341C31.4681 29.2297 32.4609 27.2407 32.9131 25.8365C33.3642 24.4312 31.4693 27.2407 30.4765 28.688C29.4825 30.1341 30.7473 30.7665 30.6555 31.7605C30.566 32.7555 28.9442 33.9297 28.9442 33.9297C28.2223 34.0203 28.3118 32.5742 27.9514 31.9418C27.5899 31.3094 26.9575 31.5803 25.9647 32.3033C24.9719 33.0264 24.8823 30.5863 24.6126 29.5913C24.344 28.5985 26.2367 27.3314 27.1263 26.6559C28.0149 25.9782 29.4825 22.7221 31.1077 20.1925C32.7329 17.6618 35.0778 18.9266 35.7091 19.9217C36.3426 20.9145 37.9633 20.2821 39.4989 22.0909C41.0335 23.8985 39.1374 24.7111 37.4261 23.9767C35.7091 23.2423 37.7853 25.7969 38.7759 26.5199C39.7687 27.2419 40.3104 24.8925 40.6719 24.3507C41.0323 23.8079 42.3844 24.0799 43.3761 22.6326C44.37 21.1865 46.6242 21.4585 47.9117 21.6171C49.2003 21.7769 48.8795 20.8249 48.0681 20.0463C47.4674 19.4706 48.6959 19.9749 50.1421 20.681C59.4728 26.2037 65.7333 36.3686 65.7333 48ZM20.4476 37.2016C20.1484 36.8922 20.7502 35.6739 21.0199 35.3123C21.2919 34.9508 20.2674 35.0709 20.3297 35.5843C20.3898 36.0955 19.9376 36.8797 19.3063 37.0905C18.6751 37.3013 17.9554 37.2401 18.3147 36.6678C18.6739 36.0955 18.3441 35.5832 18.0733 35.0403C17.8035 34.4975 19.5761 34.1665 19.9387 33.8356C20.2991 33.5047 19.3687 33.2927 19.397 32.7816C19.4276 32.2682 19.6384 31.8171 19.9965 31.7571C20.3581 31.697 20.6958 31.4658 21.0199 31.4862C22.0139 31.5474 21.7101 33.8061 22.0728 34.5303C22.4332 35.2523 23.4566 36.1272 23.3659 36.7585C23.2753 37.392 23.0826 37.7535 22.3459 37.5722C21.6059 37.3909 20.4215 38.5061 19.9682 38.2953C19.516 38.0833 20.7502 37.511 20.4476 37.2016M13.9672 24.5298C14.8705 24.9809 15.5901 24.1626 16.2203 23.9869C16.9671 23.7807 17.3933 26.4281 16.6725 26.3375C15.9505 26.2468 15.1391 27.7836 14.0964 27.6929C13.0526 27.6023 13.515 26.8803 12.342 25.7957C12.0904 25.5623 11.9873 25.3515 11.9782 25.1667C12.2287 24.9253 12.478 24.6828 12.7375 24.4505C13.1433 24.3428 13.6249 24.3587 13.9672 24.5298M42.1895 70.0229C43.0315 69.8427 42.8695 68.2402 43.6333 68.1552C45.2574 67.975 43.6934 72.4936 43.0927 73.7595C42.4909 75.0255 42.2484 74.9643 41.6761 74.1811C41.1015 73.3991 41.2873 72.1321 41.6761 71.5303C42.0637 70.9262 41.3463 70.2043 42.1895 70.0229" fill="white"/>
<path d="M90.3551 9.45454V56H80.5142V9.45454H90.3551ZM139.52 25.75H129.565C129.384 24.4621 129.012 23.3182 128.452 22.3182C127.891 21.303 127.171 20.4394 126.293 19.7273C125.414 19.0151 124.399 18.4697 123.247 18.0909C122.111 17.7121 120.876 17.5227 119.543 17.5227C117.134 17.5227 115.035 18.1212 113.247 19.3182C111.459 20.5 110.073 22.2273 109.088 24.5C108.103 26.7576 107.611 29.5 107.611 32.7273C107.611 36.0455 108.103 38.8333 109.088 41.0909C110.088 43.3485 111.482 45.053 113.27 46.2045C115.058 47.3561 117.126 47.9318 119.474 47.9318C120.793 47.9318 122.012 47.7576 123.134 47.4091C124.27 47.0606 125.277 46.553 126.156 45.8864C127.035 45.2045 127.762 44.3788 128.338 43.4091C128.929 42.4394 129.338 41.3333 129.565 40.0909L139.52 40.1364C139.262 42.2727 138.618 44.3333 137.588 46.3182C136.573 48.2879 135.202 50.053 133.474 51.6136C131.762 53.1591 129.717 54.3864 127.338 55.2955C124.974 56.1894 122.3 56.6364 119.315 56.6364C115.164 56.6364 111.452 55.697 108.179 53.8182C104.921 51.9394 102.346 49.2197 100.452 45.6591C98.5729 42.0985 97.6335 37.7879 97.6335 32.7273C97.6335 27.6515 98.5881 23.3333 100.497 19.7727C102.406 16.2121 104.997 13.5 108.27 11.6364C111.543 9.75757 115.224 8.81818 119.315 8.81818C122.012 8.81818 124.512 9.19697 126.815 9.95454C129.134 10.7121 131.187 11.8182 132.974 13.2727C134.762 14.7121 136.217 16.4773 137.338 18.5682C138.474 20.6591 139.202 23.053 139.52 25.75ZM156.418 9.45454V56H146.577V9.45454H156.418ZM164.514 56V9.45454H195.878V17.5682H174.355V28.6591H194.264V36.7727H174.355V47.8864H195.969V56H164.514ZM201.929 17.5682V9.45454H240.156V17.5682H225.906V56H216.179V17.5682H201.929ZM282.832 28.8864V36.5682H261.605V28.8864H282.832ZM305.804 56V48.9091L322.372 33.5682C323.781 32.2045 324.963 30.9773 325.918 29.8864C326.887 28.7955 327.622 27.7273 328.122 26.6818C328.622 25.6212 328.872 24.4773 328.872 23.25C328.872 21.8864 328.562 20.7121 327.94 19.7273C327.319 18.7273 326.471 17.9621 325.395 17.4318C324.319 16.8864 323.099 16.6136 321.736 16.6136C320.312 16.6136 319.069 16.9015 318.009 17.4773C316.948 18.053 316.13 18.8788 315.554 19.9545C314.978 21.0303 314.69 22.3106 314.69 23.7955H305.349C305.349 20.75 306.039 18.1061 307.418 15.8636C308.796 13.6212 310.728 11.8864 313.213 10.6591C315.698 9.43182 318.562 8.81818 321.804 8.81818C325.137 8.81818 328.039 9.40909 330.509 10.5909C332.993 11.7576 334.925 13.3788 336.304 15.4545C337.683 17.5303 338.372 19.9091 338.372 22.5909C338.372 24.3485 338.024 26.0833 337.327 27.7955C336.645 29.5076 335.425 31.4091 333.668 33.5C331.91 35.5758 329.433 38.0682 326.236 40.9773L319.44 47.6364V47.9545H338.986V56H305.804ZM363.321 56.6364C359.927 56.6364 356.904 56.053 354.253 54.8864C351.616 53.7045 349.533 52.0833 348.003 50.0227C346.488 47.947 345.707 45.553 345.662 42.8409H355.571C355.632 43.9773 356.003 44.9773 356.685 45.8409C357.382 46.6894 358.306 47.3485 359.457 47.8182C360.609 48.2879 361.904 48.5227 363.344 48.5227C364.844 48.5227 366.17 48.2576 367.321 47.7273C368.473 47.197 369.374 46.4621 370.026 45.5227C370.677 44.5833 371.003 43.5 371.003 42.2727C371.003 41.0303 370.654 39.9318 369.957 38.9773C369.276 38.0076 368.291 37.25 367.003 36.7045C365.73 36.1591 364.215 35.8864 362.457 35.8864H358.116V28.6591H362.457C363.942 28.6591 365.253 28.4015 366.389 27.8864C367.541 27.3712 368.435 26.6591 369.071 25.75C369.707 24.8258 370.026 23.75 370.026 22.5227C370.026 21.3561 369.745 20.3333 369.185 19.4545C368.639 18.5606 367.866 17.8636 366.866 17.3636C365.882 16.8636 364.73 16.6136 363.412 16.6136C362.079 16.6136 360.859 16.8561 359.753 17.3409C358.647 17.8106 357.76 18.4848 357.094 19.3636C356.427 20.2424 356.071 21.2727 356.026 22.4545H346.594C346.639 19.7727 347.404 17.4091 348.889 15.3636C350.374 13.3182 352.374 11.7197 354.889 10.5682C357.42 9.40151 360.276 8.81818 363.457 8.81818C366.67 8.81818 369.48 9.40151 371.889 10.5682C374.298 11.7348 376.17 13.3106 377.503 15.2955C378.851 17.2652 379.518 19.4773 379.503 21.9318C379.518 24.5379 378.707 26.7121 377.071 28.4545C375.45 30.197 373.336 31.303 370.73 31.7727V32.1364C374.154 32.5758 376.76 33.7652 378.548 35.7045C380.351 37.6288 381.245 40.0379 381.23 42.9318C381.245 45.5833 380.48 47.9394 378.935 50C377.404 52.0606 375.291 53.6818 372.594 54.8636C369.897 56.0455 366.806 56.6364 363.321 56.6364Z" fill="white"/>
<path d="M82.8207 62.5455V72H80.8217V62.5455H82.8207ZM92.3733 62.5455V72H90.6468L86.5335 66.0494H86.4642V72H84.4653V62.5455H86.2195L90.3005 68.4915H90.3836V62.5455H92.3733ZM93.6648 64.1935V62.5455H101.43V64.1935H98.5352V72H96.5593V64.1935H93.6648ZM102.708 72V62.5455H109.079V64.1935H104.707V66.4464H108.751V68.0945H104.707V70.3519H109.098V72H102.708ZM110.668 72V62.5455H114.399C115.113 62.5455 115.722 62.6732 116.227 62.9286C116.734 63.181 117.121 63.5395 117.385 64.0043C117.653 64.4659 117.787 65.0091 117.787 65.6339C117.787 66.2617 117.652 66.8018 117.381 67.2543C117.11 67.7036 116.718 68.0483 116.204 68.2884C115.693 68.5284 115.074 68.6484 114.348 68.6484H111.85V67.0419H114.025C114.406 67.0419 114.723 66.9896 114.976 66.8849C115.228 66.7803 115.416 66.6233 115.539 66.4141C115.665 66.2048 115.728 65.9447 115.728 65.6339C115.728 65.32 115.665 65.0553 115.539 64.8398C115.416 64.6244 115.226 64.4613 114.971 64.3505C114.719 64.2366 114.4 64.1797 114.015 64.1797H112.667V72H110.668ZM115.774 67.6974L118.124 72H115.917L113.618 67.6974H115.774ZM127.108 62.5455V72H125.381L121.268 66.0494H121.199V72H119.2V62.5455H120.954L125.035 68.4915H125.118V62.5455H127.108ZM130.389 72H128.247L131.511 62.5455H134.087L137.346 72H135.204L132.836 64.706H132.762L130.389 72ZM130.255 68.2837H135.315V69.8441H130.255V68.2837ZM136.968 64.1935V62.5455H144.733V64.1935H141.839V72H139.863V64.1935H136.968ZM148.011 62.5455V72H146.012V62.5455H148.011ZM158.344 67.2727C158.344 68.3037 158.148 69.1809 157.758 69.9041C157.37 70.6274 156.84 71.1798 156.17 71.5614C155.502 71.94 154.751 72.1293 153.917 72.1293C153.077 72.1293 152.323 71.9384 151.655 71.5568C150.987 71.1752 150.459 70.6228 150.071 69.8995C149.683 69.1763 149.49 68.3007 149.49 67.2727C149.49 66.2417 149.683 65.3646 150.071 64.6413C150.459 63.9181 150.987 63.3672 151.655 62.9886C152.323 62.607 153.077 62.4162 153.917 62.4162C154.751 62.4162 155.502 62.607 156.17 62.9886C156.84 63.3672 157.37 63.9181 157.758 64.6413C158.148 65.3646 158.344 66.2417 158.344 67.2727ZM156.317 67.2727C156.317 66.6049 156.217 66.0417 156.017 65.5831C155.82 65.1245 155.542 64.7768 155.182 64.5398C154.822 64.3028 154.4 64.1843 153.917 64.1843C153.434 64.1843 153.012 64.3028 152.652 64.5398C152.292 64.7768 152.012 65.1245 151.812 65.5831C151.615 66.0417 151.516 66.6049 151.516 67.2727C151.516 67.9406 151.615 68.5038 151.812 68.9624C152.012 69.4209 152.292 69.7687 152.652 70.0057C153.012 70.2427 153.434 70.3612 153.917 70.3612C154.4 70.3612 154.822 70.2427 155.182 70.0057C155.542 69.7687 155.82 69.4209 156.017 68.9624C156.217 68.5038 156.317 67.9406 156.317 67.2727ZM167.733 62.5455V72H166.006L161.893 66.0494H161.824V72H159.825V62.5455H161.579L165.66 68.4915H165.743V62.5455H167.733ZM171.014 72H168.872L172.136 62.5455H174.712L177.971 72H175.829L173.461 64.706H173.387L171.014 72ZM170.88 68.2837H175.94V69.8441H170.88V68.2837ZM179.109 72V62.5455H181.108V70.3519H185.161V72H179.109ZM197.836 65.8555H195.814C195.777 65.5939 195.701 65.3615 195.587 65.1584C195.473 64.9522 195.327 64.7768 195.149 64.6321C194.97 64.4875 194.764 64.3767 194.53 64.2997C194.299 64.2228 194.049 64.1843 193.778 64.1843C193.288 64.1843 192.862 64.3059 192.499 64.549C192.136 64.7891 191.854 65.1399 191.654 65.6016C191.454 66.0601 191.354 66.6172 191.354 67.2727C191.354 67.9467 191.454 68.513 191.654 68.9716C191.857 69.4302 192.14 69.7764 192.504 70.0103C192.867 70.2442 193.287 70.3612 193.764 70.3612C194.032 70.3612 194.279 70.3258 194.507 70.255C194.738 70.1842 194.943 70.0811 195.121 69.9457C195.3 69.8072 195.447 69.6394 195.564 69.4425C195.684 69.2455 195.767 69.0208 195.814 68.7685L197.836 68.7777C197.783 69.2116 197.652 69.6302 197.443 70.0334C197.237 70.4335 196.958 70.792 196.608 71.109C196.26 71.4229 195.844 71.6722 195.361 71.8569C194.881 72.0385 194.338 72.1293 193.732 72.1293C192.888 72.1293 192.134 71.9384 191.469 71.5568C190.808 71.1752 190.285 70.6228 189.9 69.8995C189.518 69.1763 189.327 68.3007 189.327 67.2727C189.327 66.2417 189.521 65.3646 189.909 64.6413C190.297 63.9181 190.823 63.3672 191.488 62.9886C192.153 62.607 192.901 62.4162 193.732 62.4162C194.279 62.4162 194.787 62.4931 195.255 62.647C195.726 62.8009 196.143 63.0256 196.506 63.321C196.869 63.6134 197.165 63.9719 197.392 64.3967C197.623 64.8214 197.771 65.3076 197.836 65.8555ZM207.957 67.2727C207.957 68.3037 207.762 69.1809 207.371 69.9041C206.983 70.6274 206.454 71.1798 205.783 71.5614C205.115 71.94 204.364 72.1293 203.53 72.1293C202.69 72.1293 201.936 71.9384 201.268 71.5568C200.6 71.1752 200.072 70.6228 199.684 69.8995C199.297 69.1763 199.103 68.3007 199.103 67.2727C199.103 66.2417 199.297 65.3646 199.684 64.6413C200.072 63.9181 200.6 63.3672 201.268 62.9886C201.936 62.607 202.69 62.4162 203.53 62.4162C204.364 62.4162 205.115 62.607 205.783 62.9886C206.454 63.3672 206.983 63.9181 207.371 64.6413C207.762 65.3646 207.957 66.2417 207.957 67.2727ZM205.931 67.2727C205.931 66.6049 205.831 66.0417 205.631 65.5831C205.434 65.1245 205.155 64.7768 204.795 64.5398C204.435 64.3028 204.013 64.1843 203.53 64.1843C203.047 64.1843 202.625 64.3028 202.265 64.5398C201.905 64.7768 201.625 65.1245 201.425 65.5831C201.228 66.0417 201.129 66.6049 201.129 67.2727C201.129 67.9406 201.228 68.5038 201.425 68.9624C201.625 69.4209 201.905 69.7687 202.265 70.0057C202.625 70.2427 203.047 70.3612 203.53 70.3612C204.013 70.3612 204.435 70.2427 204.795 70.0057C205.155 69.7687 205.434 69.4209 205.631 68.9624C205.831 68.5038 205.931 67.9406 205.931 67.2727ZM217.346 62.5455V72H215.619L211.506 66.0494H211.437V72H209.438V62.5455H211.192L215.273 68.4915H215.356V62.5455H217.346ZM218.998 72V62.5455H225.257V64.1935H220.996V66.4464H224.842V68.0945H220.996V72H218.998ZM226.602 72V62.5455H232.973V64.1935H228.601V66.4464H232.645V68.0945H228.601V70.3519H232.991V72H226.602ZM234.562 72V62.5455H238.292C239.006 62.5455 239.615 62.6732 240.12 62.9286C240.628 63.181 241.014 63.5395 241.279 64.0043C241.547 64.4659 241.681 65.0091 241.681 65.6339C241.681 66.2617 241.545 66.8018 241.274 67.2543C241.003 67.7036 240.611 68.0483 240.097 68.2884C239.586 68.5284 238.968 68.6484 238.241 68.6484H235.744V67.0419H237.918C238.3 67.0419 238.617 66.9896 238.869 66.8849C239.122 66.7803 239.309 66.6233 239.432 66.4141C239.559 66.2048 239.622 65.9447 239.622 65.6339C239.622 65.32 239.559 65.0553 239.432 64.8398C239.309 64.6244 239.12 64.4613 238.865 64.3505C238.612 64.2366 238.294 64.1797 237.909 64.1797H236.561V72H234.562ZM239.668 67.6974L242.018 72H239.811L237.512 67.6974H239.668ZM243.093 72V62.5455H249.464V64.1935H245.092V66.4464H249.136V68.0945H245.092V70.3519H249.482V72H243.093ZM258.961 62.5455V72H257.235L253.121 66.0494H253.052V72H251.053V62.5455H252.807L256.888 68.4915H256.972V62.5455H258.961ZM268.955 65.8555H266.933C266.896 65.5939 266.82 65.3615 266.706 65.1584C266.593 64.9522 266.446 64.7768 266.268 64.6321C266.089 64.4875 265.883 64.3767 265.649 64.2997C265.419 64.2228 265.168 64.1843 264.897 64.1843C264.407 64.1843 263.981 64.3059 263.618 64.549C263.255 64.7891 262.973 65.1399 262.773 65.6016C262.573 66.0601 262.473 66.6172 262.473 67.2727C262.473 67.9467 262.573 68.513 262.773 68.9716C262.976 69.4302 263.26 69.7764 263.623 70.0103C263.986 70.2442 264.406 70.3612 264.883 70.3612C265.151 70.3612 265.398 70.3258 265.626 70.255C265.857 70.1842 266.062 70.0811 266.24 69.9457C266.419 69.8072 266.566 69.6394 266.683 69.4425C266.803 69.2455 266.887 69.0208 266.933 68.7685L268.955 68.7777C268.902 69.2116 268.772 69.6302 268.562 70.0334C268.356 70.4335 268.078 70.792 267.727 71.109C267.379 71.4229 266.963 71.6722 266.48 71.8569C266 72.0385 265.457 72.1293 264.851 72.1293C264.007 72.1293 263.253 71.9384 262.589 71.5568C261.927 71.1752 261.404 70.6228 261.019 69.8995C260.637 69.1763 260.447 68.3007 260.447 67.2727C260.447 66.2417 260.64 65.3646 261.028 64.6413C261.416 63.9181 261.942 63.3672 262.607 62.9886C263.272 62.607 264.02 62.4162 264.851 62.4162C265.398 62.4162 265.906 62.4931 266.374 62.647C266.845 62.8009 267.262 63.0256 267.625 63.321C267.988 63.6134 268.284 63.9719 268.512 64.3967C268.742 64.8214 268.89 65.3076 268.955 65.8555ZM270.388 72V62.5455H276.759V64.1935H272.387V66.4464H276.431V68.0945H272.387V70.3519H276.777V72H270.388ZM290.045 67.2727C290.045 68.3037 289.85 69.1809 289.459 69.9041C289.071 70.6274 288.542 71.1798 287.871 71.5614C287.203 71.94 286.452 72.1293 285.618 72.1293C284.778 72.1293 284.024 71.9384 283.356 71.5568C282.688 71.1752 282.16 70.6228 281.772 69.8995C281.385 69.1763 281.191 68.3007 281.191 67.2727C281.191 66.2417 281.385 65.3646 281.772 64.6413C282.16 63.9181 282.688 63.3672 283.356 62.9886C284.024 62.607 284.778 62.4162 285.618 62.4162C286.452 62.4162 287.203 62.607 287.871 62.9886C288.542 63.3672 289.071 63.9181 289.459 64.6413C289.85 65.3646 290.045 66.2417 290.045 67.2727ZM288.018 67.2727C288.018 66.6049 287.918 66.0417 287.718 65.5831C287.521 65.1245 287.243 64.7768 286.883 64.5398C286.523 64.3028 286.101 64.1843 285.618 64.1843C285.135 64.1843 284.713 64.3028 284.353 64.5398C283.993 64.7768 283.713 65.1245 283.513 65.5831C283.316 66.0417 283.217 66.6049 283.217 67.2727C283.217 67.9406 283.316 68.5038 283.513 68.9624C283.713 69.4209 283.993 69.7687 284.353 70.0057C284.713 70.2427 285.135 70.3612 285.618 70.3612C286.101 70.3612 286.523 70.2427 286.883 70.0057C287.243 69.7687 287.521 69.4209 287.718 68.9624C287.918 68.5038 288.018 67.9406 288.018 67.2727ZM299.434 62.5455V72H297.707L293.594 66.0494H293.525V72H291.526V62.5455H293.28L297.361 68.4915H297.444V62.5455H299.434ZM306.093 62.5455V72H304.094V62.5455H306.093ZM315.646 62.5455V72H313.919L309.806 66.0494H309.737V72H307.738V62.5455H309.492L313.573 68.4915H313.656V62.5455H315.646ZM325.205 62.5455V72H323.479L319.366 66.0494H319.296V72H317.297V62.5455H319.052L323.133 68.4915H323.216V62.5455H325.205ZM335.545 67.2727C335.545 68.3037 335.35 69.1809 334.959 69.9041C334.571 70.6274 334.042 71.1798 333.371 71.5614C332.703 71.94 331.952 72.1293 331.118 72.1293C330.278 72.1293 329.524 71.9384 328.856 71.5568C328.188 71.1752 327.66 70.6228 327.272 69.8995C326.885 69.1763 326.691 68.3007 326.691 67.2727C326.691 66.2417 326.885 65.3646 327.272 64.6413C327.66 63.9181 328.188 63.3672 328.856 62.9886C329.524 62.607 330.278 62.4162 331.118 62.4162C331.952 62.4162 332.703 62.607 333.371 62.9886C334.042 63.3672 334.571 63.9181 334.959 64.6413C335.35 65.3646 335.545 66.2417 335.545 67.2727ZM333.518 67.2727C333.518 66.6049 333.418 66.0417 333.218 65.5831C333.021 65.1245 332.743 64.7768 332.383 64.5398C332.023 64.3028 331.601 64.1843 331.118 64.1843C330.635 64.1843 330.213 64.3028 329.853 64.5398C329.493 64.7768 329.213 65.1245 329.013 65.5831C328.816 66.0417 328.717 66.6049 328.717 67.2727C328.717 67.9406 328.816 68.5038 329.013 68.9624C329.213 69.4209 329.493 69.7687 329.853 70.0057C330.213 70.2427 330.635 70.3612 331.118 70.3612C331.601 70.3612 332.023 70.2427 332.383 70.0057C332.743 69.7687 333.021 69.4209 333.218 68.9624C333.418 68.5038 333.518 67.9406 333.518 67.2727ZM338.201 62.5455L340.486 69.7287H340.574L342.863 62.5455H345.079L341.82 72H339.244L335.98 62.5455H338.201ZM346.59 72H344.448L347.712 62.5455H350.288L353.547 72H351.405L349.037 64.706H348.963L346.59 72ZM346.456 68.2837H351.516V69.8441H346.456V68.2837ZM353.17 64.1935V62.5455H360.935V64.1935H358.04V72H356.064V64.1935H353.17ZM364.212 62.5455V72H362.213V62.5455H364.212ZM374.545 67.2727C374.545 68.3037 374.35 69.1809 373.959 69.9041C373.571 70.6274 373.042 71.1798 372.371 71.5614C371.703 71.94 370.952 72.1293 370.118 72.1293C369.278 72.1293 368.524 71.9384 367.856 71.5568C367.188 71.1752 366.66 70.6228 366.272 69.8995C365.885 69.1763 365.691 68.3007 365.691 67.2727C365.691 66.2417 365.885 65.3646 366.272 64.6413C366.66 63.9181 367.188 63.3672 367.856 62.9886C368.524 62.607 369.278 62.4162 370.118 62.4162C370.952 62.4162 371.703 62.607 372.371 62.9886C373.042 63.3672 373.571 63.9181 373.959 64.6413C374.35 65.3646 374.545 66.2417 374.545 67.2727ZM372.518 67.2727C372.518 66.6049 372.418 66.0417 372.218 65.5831C372.021 65.1245 371.743 64.7768 371.383 64.5398C371.023 64.3028 370.601 64.1843 370.118 64.1843C369.635 64.1843 369.213 64.3028 368.853 64.5398C368.493 64.7768 368.213 65.1245 368.013 65.5831C367.816 66.0417 367.717 66.6049 367.717 67.2727C367.717 67.9406 367.816 68.5038 368.013 68.9624C368.213 69.4209 368.493 69.7687 368.853 70.0057C369.213 70.2427 369.635 70.3612 370.118 70.3612C370.601 70.3612 371.023 70.2427 371.383 70.0057C371.743 69.7687 372.021 69.4209 372.218 68.9624C372.418 68.5038 372.518 67.9406 372.518 67.2727ZM383.934 62.5455V72H382.207L378.094 66.0494H378.025V72H376.026V62.5455H377.78L381.861 68.4915H381.944V62.5455H383.934ZM82.8207 78.5455V88H80.8217V78.5455H82.8207ZM92.3733 78.5455V88H90.6468L86.5335 82.0494H86.4642V88H84.4653V78.5455H86.2195L90.3005 84.4915H90.3836V78.5455H92.3733ZM97.0336 88V78.5455H103.404V80.1935H99.0326V82.4464H103.077V84.0945H99.0326V86.3519H103.423V88H97.0336ZM112.902 78.5455V88H111.175L107.062 82.0494H106.993V88H104.994V78.5455H106.748L110.829 84.4915H110.912V78.5455H112.902ZM120.822 81.6016C120.758 81.3769 120.667 81.1784 120.55 81.006C120.433 80.8306 120.29 80.6829 120.121 80.5629C119.954 80.4397 119.764 80.3459 119.548 80.2812C119.336 80.2166 119.1 80.1843 118.842 80.1843C118.359 80.1843 117.934 80.3043 117.568 80.5444C117.205 80.7844 116.921 81.1338 116.718 81.5923C116.515 82.0478 116.414 82.6049 116.414 83.2635C116.414 83.9221 116.514 84.4822 116.714 84.9439C116.914 85.4055 117.197 85.7579 117.563 86.0011C117.929 86.2411 118.362 86.3612 118.86 86.3612C119.313 86.3612 119.699 86.2811 120.019 86.1211C120.342 85.958 120.588 85.7287 120.758 85.4332C120.93 85.1378 121.016 84.7885 121.016 84.3853L121.422 84.4453H118.985V82.9403H122.941V84.1314C122.941 84.9624 122.766 85.6764 122.415 86.2734C122.064 86.8674 121.581 87.326 120.965 87.6491C120.35 87.9692 119.645 88.1293 118.851 88.1293C117.965 88.1293 117.186 87.9338 116.515 87.543C115.844 87.149 115.321 86.5904 114.946 85.8672C114.573 85.1409 114.387 84.2791 114.387 83.282C114.387 82.5156 114.498 81.8324 114.719 81.2322C114.944 80.629 115.258 80.1181 115.661 79.6996C116.064 79.281 116.534 78.9625 117.069 78.744C117.605 78.5254 118.185 78.4162 118.81 78.4162C119.345 78.4162 119.844 78.4947 120.305 78.6516C120.767 78.8055 121.176 79.024 121.533 79.3072C121.893 79.5903 122.187 79.9273 122.415 80.3182C122.643 80.706 122.789 81.1338 122.854 81.6016H120.822ZM126.442 78.5455V88H124.443V78.5455H126.442ZM135.994 78.5455V88H134.268L130.155 82.0494H130.085V88H128.086V78.5455H129.841L133.922 84.4915H134.005V78.5455H135.994ZM137.646 88V78.5455H144.017V80.1935H139.645V82.4464H143.689V84.0945H139.645V86.3519H144.035V88H137.646ZM145.606 88V78.5455H151.977V80.1935H147.605V82.4464H151.649V84.0945H147.605V86.3519H151.995V88H145.606ZM153.566 88V78.5455H157.296C158.01 78.5455 158.619 78.6732 159.124 78.9286C159.632 79.181 160.018 79.5395 160.283 80.0043C160.551 80.4659 160.684 81.0091 160.684 81.6339C160.684 82.2617 160.549 82.8018 160.278 83.2543C160.007 83.7036 159.615 84.0483 159.101 84.2884C158.59 84.5284 157.972 84.6484 157.245 84.6484H154.748V83.0419H156.922C157.304 83.0419 157.621 82.9896 157.873 82.8849C158.125 82.7803 158.313 82.6233 158.436 82.4141C158.562 82.2048 158.626 81.9447 158.626 81.6339C158.626 81.32 158.562 81.0553 158.436 80.8398C158.313 80.6244 158.124 80.4613 157.868 80.3505C157.616 80.2366 157.298 80.1797 156.913 80.1797H155.565V88H153.566ZM158.672 83.6974L161.021 88H158.815L156.516 83.6974H158.672ZM164.096 78.5455V88H162.097V78.5455H164.096ZM173.649 78.5455V88H171.922L167.809 82.0494H167.74V88H165.741V78.5455H167.495L171.576 84.4915H171.659V78.5455H173.649ZM181.569 81.6016C181.505 81.3769 181.414 81.1784 181.297 81.006C181.18 80.8306 181.037 80.6829 180.868 80.5629C180.702 80.4397 180.511 80.3459 180.295 80.2812C180.083 80.2166 179.847 80.1843 179.589 80.1843C179.106 80.1843 178.681 80.3043 178.315 80.5444C177.952 80.7844 177.669 81.1338 177.465 81.5923C177.262 82.0478 177.161 82.6049 177.161 83.2635C177.161 83.9221 177.261 84.4822 177.461 84.9439C177.661 85.4055 177.944 85.7579 178.31 86.0011C178.676 86.2411 179.109 86.3612 179.607 86.3612C180.06 86.3612 180.446 86.2811 180.766 86.1211C181.089 85.958 181.336 85.7287 181.505 85.4332C181.677 85.1378 181.763 84.7885 181.763 84.3853L182.17 84.4453H179.732V82.9403H183.688V84.1314C183.688 84.9624 183.513 85.6764 183.162 86.2734C182.811 86.8674 182.328 87.326 181.713 87.6491C181.097 87.9692 180.392 88.1293 179.598 88.1293C178.712 88.1293 177.933 87.9338 177.262 87.543C176.591 87.149 176.068 86.5904 175.693 85.8672C175.32 85.1409 175.134 84.2791 175.134 83.282C175.134 82.5156 175.245 81.8324 175.466 81.2322C175.691 80.629 176.005 80.1181 176.408 79.6996C176.811 79.281 177.281 78.9625 177.816 78.744C178.352 78.5254 178.932 78.4162 179.557 78.4162C180.092 78.4162 180.591 78.4947 181.052 78.6516C181.514 78.8055 181.923 79.024 182.28 79.3072C182.64 79.5903 182.934 79.9273 183.162 80.3182C183.39 80.706 183.536 81.1338 183.601 81.6016H181.569ZM189.828 88H187.686L190.95 78.5455H193.526L196.785 88H194.643L192.275 80.706H192.201L189.828 88ZM189.694 84.2837H194.754V85.8441H189.694V84.2837ZM205.831 78.5455V88H204.105L199.991 82.0494H199.922V88H197.923V78.5455H199.678L203.759 84.4915H203.842V78.5455H205.831ZM210.834 88H207.483V78.5455H210.862C211.813 78.5455 212.632 78.7347 213.318 79.1133C214.004 79.4888 214.532 80.0289 214.902 80.7337C215.274 81.4384 215.46 82.2817 215.46 83.2635C215.46 84.2483 215.274 85.0947 214.902 85.8026C214.532 86.5104 214.001 87.0536 213.309 87.4322C212.619 87.8107 211.795 88 210.834 88ZM209.482 86.2873H210.751C211.342 86.2873 211.839 86.1826 212.242 85.9734C212.649 85.761 212.953 85.4332 213.157 84.9901C213.363 84.5438 213.466 83.9683 213.466 83.2635C213.466 82.5649 213.363 81.994 213.157 81.5508C212.953 81.1076 212.65 80.7814 212.247 80.5721C211.844 80.3628 211.347 80.2582 210.756 80.2582H209.482V86.2873ZM219.59 80.1935V78.5455H227.354V80.1935H224.46V88H222.484V80.1935H219.59ZM228.633 88V78.5455H235.004V80.1935H230.632V82.4464H234.676V84.0945H230.632V86.3519H235.022V88H228.633ZM244.935 81.8555H242.913C242.876 81.5939 242.801 81.3615 242.687 81.1584C242.573 80.9522 242.427 80.7768 242.248 80.6321C242.07 80.4875 241.864 80.3767 241.63 80.2997C241.399 80.2228 241.148 80.1843 240.877 80.1843C240.388 80.1843 239.962 80.3059 239.599 80.549C239.235 80.7891 238.954 81.1399 238.754 81.6016C238.554 82.0601 238.454 82.6172 238.454 83.2727C238.454 83.9467 238.554 84.513 238.754 84.9716C238.957 85.4302 239.24 85.7764 239.603 86.0103C239.966 86.2442 240.386 86.3612 240.863 86.3612C241.131 86.3612 241.379 86.3258 241.607 86.255C241.838 86.1842 242.042 86.0811 242.221 85.9457C242.399 85.8072 242.547 85.6394 242.664 85.4425C242.784 85.2455 242.867 85.0208 242.913 84.7685L244.935 84.7777C244.883 85.2116 244.752 85.6302 244.543 86.0334C244.337 86.4335 244.058 86.792 243.707 87.109C243.359 87.4229 242.944 87.6722 242.461 87.8569C241.981 88.0385 241.437 88.1293 240.831 88.1293C239.988 88.1293 239.234 87.9384 238.569 87.5568C237.907 87.1752 237.384 86.6228 236.999 85.8995C236.618 85.1763 236.427 84.3007 236.427 83.2727C236.427 82.2417 236.621 81.3646 237.009 80.6413C237.396 79.9181 237.923 79.3672 238.588 78.9886C239.252 78.607 240 78.4162 240.831 78.4162C241.379 78.4162 241.887 78.4931 242.355 78.647C242.825 78.8009 243.242 79.0256 243.606 79.321C243.969 79.6134 244.264 79.9719 244.492 80.3967C244.723 80.8214 244.871 81.3076 244.935 81.8555ZM246.369 88V78.5455H248.368V82.4464H252.425V78.5455H254.42V88H252.425V84.0945H248.368V88H246.369ZM263.976 78.5455V88H262.249L258.136 82.0494H258.067V88H256.068V78.5455H257.822L261.903 84.4915H261.986V78.5455H263.976ZM274.316 83.2727C274.316 84.3037 274.12 85.1809 273.729 85.9041C273.342 86.6274 272.812 87.1798 272.141 87.5614C271.473 87.94 270.722 88.1293 269.888 88.1293C269.048 88.1293 268.294 87.9384 267.626 87.5568C266.958 87.1752 266.431 86.6228 266.043 85.8995C265.655 85.1763 265.461 84.3007 265.461 83.2727C265.461 82.2417 265.655 81.3646 266.043 80.6413C266.431 79.9181 266.958 79.3672 267.626 78.9886C268.294 78.607 269.048 78.4162 269.888 78.4162C270.722 78.4162 271.473 78.607 272.141 78.9886C272.812 79.3672 273.342 79.9181 273.729 80.6413C274.12 81.3646 274.316 82.2417 274.316 83.2727ZM272.289 83.2727C272.289 82.6049 272.189 82.0417 271.989 81.5831C271.792 81.1245 271.513 80.7768 271.153 80.5398C270.793 80.3028 270.372 80.1843 269.888 80.1843C269.405 80.1843 268.984 80.3028 268.623 80.5398C268.263 80.7768 267.983 81.1245 267.783 81.5831C267.586 82.0417 267.488 82.6049 267.488 83.2727C267.488 83.9406 267.586 84.5038 267.783 84.9624C267.983 85.4209 268.263 85.7687 268.623 86.0057C268.984 86.2427 269.405 86.3612 269.888 86.3612C270.372 86.3612 270.793 86.2427 271.153 86.0057C271.513 85.7687 271.792 85.4209 271.989 84.9624C272.189 84.5038 272.289 83.9406 272.289 83.2727ZM275.796 88V78.5455H277.795V86.3519H281.849V88H275.796ZM291.492 83.2727C291.492 84.3037 291.297 85.1809 290.906 85.9041C290.518 86.6274 289.989 87.1798 289.318 87.5614C288.65 87.94 287.899 88.1293 287.065 88.1293C286.225 88.1293 285.471 87.9384 284.803 87.5568C284.135 87.1752 283.607 86.6228 283.22 85.8995C282.832 85.1763 282.638 84.3007 282.638 83.2727C282.638 82.2417 282.832 81.3646 283.22 80.6413C283.607 79.9181 284.135 79.3672 284.803 78.9886C285.471 78.607 286.225 78.4162 287.065 78.4162C287.899 78.4162 288.65 78.607 289.318 78.9886C289.989 79.3672 290.518 79.9181 290.906 80.6413C291.297 81.3646 291.492 82.2417 291.492 83.2727ZM289.466 83.2727C289.466 82.6049 289.366 82.0417 289.166 81.5831C288.969 81.1245 288.69 80.7768 288.33 80.5398C287.97 80.3028 287.548 80.1843 287.065 80.1843C286.582 80.1843 286.16 80.3028 285.8 80.5398C285.44 80.7768 285.16 81.1245 284.96 81.5831C284.763 82.0417 284.665 82.6049 284.665 83.2727C284.665 83.9406 284.763 84.5038 284.96 84.9624C285.16 85.4209 285.44 85.7687 285.8 86.0057C286.16 86.2427 286.582 86.3612 287.065 86.3612C287.548 86.3612 287.97 86.2427 288.33 86.0057C288.69 85.7687 288.969 85.4209 289.166 84.9624C289.366 84.5038 289.466 83.9406 289.466 83.2727ZM299.242 81.6016C299.178 81.3769 299.087 81.1784 298.97 81.006C298.853 80.8306 298.71 80.6829 298.541 80.5629C298.374 80.4397 298.184 80.3459 297.968 80.2812C297.756 80.2166 297.52 80.1843 297.262 80.1843C296.779 80.1843 296.354 80.3043 295.988 80.5444C295.624 80.7844 295.341 81.1338 295.138 81.5923C294.935 82.0478 294.834 82.6049 294.834 83.2635C294.834 83.9221 294.934 84.4822 295.134 84.9439C295.334 85.4055 295.617 85.7579 295.983 86.0011C296.349 86.2411 296.782 86.3612 297.28 86.3612C297.733 86.3612 298.119 86.2811 298.439 86.1211C298.762 85.958 299.008 85.7287 299.178 85.4332C299.35 85.1378 299.436 84.7885 299.436 84.3853L299.842 84.4453H297.405V82.9403H301.361V84.1314C301.361 84.9624 301.186 85.6764 300.835 86.2734C300.484 86.8674 300.001 87.326 299.385 87.6491C298.77 87.9692 298.065 88.1293 297.271 88.1293C296.385 88.1293 295.606 87.9338 294.935 87.543C294.264 87.149 293.741 86.5904 293.366 85.8672C292.993 85.1409 292.807 84.2791 292.807 83.282C292.807 82.5156 292.918 81.8324 293.139 81.2322C293.364 80.629 293.678 80.1181 294.081 79.6996C294.484 79.281 294.954 78.9625 295.489 78.744C296.025 78.5254 296.605 78.4162 297.229 78.4162C297.765 78.4162 298.264 78.4947 298.725 78.6516C299.187 78.8055 299.596 79.024 299.953 79.3072C300.313 79.5903 300.607 79.9273 300.835 80.3182C301.063 80.706 301.209 81.1338 301.274 81.6016H299.242ZM301.928 78.5455H304.167L306.323 82.6172H306.415L308.571 78.5455H310.81L307.362 84.6577V88H305.376V84.6577L301.928 78.5455Z" fill="white"/>
</svg>
